<svg xmlns="http://www.w3.org/2000/svg" width="66" height="100" fill="none">
  <path fill="#cccccc" fill-rule="evenodd"
    d="M31.538 1.737c-3.48 3.71-5.93 10.53-5.328 14.828.44 3.134.975 4.548 4.544 11.995 3.806 7.94 4.63 10.853 3.974 14.05-.522 2.55-.163 2.5 2.093-.29 2.851-3.53 4.237-6.991 4.468-11.165.247-4.448-.4-6.628-4.245-14.291-1.43-2.854-2.96-6.229-3.399-7.5-.861-2.5-1.047-6.589-.38-8.347.58-1.52.244-1.38-1.727.72ZM.138 15.37c.628 7.445 4.42 12.92 11.06 15.97 1.681.773 5.433 2.105 8.337 2.961 7.963 2.348 11.195 4.292 13.61 8.184.464.749.51.708.526-.46.032-2.32-1.22-7.22-2.525-9.877-1.596-3.249-4.727-6.237-8.247-7.87-1.463-.679-5.525-2.12-9.028-3.202-3.502-1.082-7.088-2.335-7.968-2.784-1.698-.866-4.001-2.925-5.25-4.693-.746-1.056-.752-1.035-.515 1.77Zm53.12 13.654c-4.957 1.168-8.806 4.568-14.288 12.62-4.931 7.243-7.515 9.637-11.464 10.624l-1.282.32 1.066.407c1.866.71 6.539 1.103 9.254.776 6.055-.728 9.985-3.83 15.974-12.611 5.2-7.623 8.81-10.89 12.034-10.89 1.576 0 .334-.724-2.123-1.237-2.627-.55-6.864-.553-9.171-.01ZM19.17 60.832v5.77H43.53l2.78-5.55c1.53-3.053 2.782-5.65 2.782-5.771 0-.121-6.732-.22-14.96-.22H19.17v5.77Zm3.847 23.11V100l1.144-.135c1.068-.127 1.579-1.131 7.683-15.096 3.596-8.229 6.731-15.393 6.968-15.923l.43-.961H23.017v16.057Z"
    clip-rule="evenodd" />
</svg>