<svg xmlns="http://www.w3.org/2000/svg" width="16" height="16" fill="none">
  <circle cx="8" cy="8" r="8" fill="#666" />
  <path fill="#fff" fill-rule="evenodd"
    d="M9.33 2.614c-.2-.143-.298-.19-.34-.162-.023.016-.034.221-.035.726-.003.796-.012.844-.19 1.025-.165.167-.285.2-.73.2-.443.001-.56-.03-.727-.198-.178-.178-.188-.229-.188-.994 0-.478-.01-.68-.033-.696-.051-.035-.208.073-.449.308a1.838 1.838 0 0 0-.303.354c-.438.7-.433 1.57.013 2.255.06.093.18.235.335.395.263.273.32.36.397.6.038.116.044.637.042 3.622-.001 3.804-.01 3.59.168 3.846.343.495 1.112.49 1.465-.008.184-.259.175-.079.178-3.777.002-2.053.014-3.428.032-3.51.016-.075.064-.206.108-.29.074-.142.107-.181.415-.498.315-.324.34-.353.427-.518.295-.553.34-1.179.127-1.748a2.216 2.216 0 0 0-.712-.932Zm-.96 10.537a.405.405 0 0 1-.51.577c-.157-.064-.246-.22-.234-.406.02-.286.362-.461.608-.31.084.051.087.054.135.139Z"
    clip-rule="evenodd" />
</svg>